<svg id="Capa_1" enable-background="new 0 0 512 512" height="512" viewBox="0 0 512 512" width="512" xmlns="http://www.w3.org/2000/svg"><path d="m273.799 65.362-99.031 90.085 298.301 38.916-72.605-112.477c-28.051-43.455-88.404-51.329-126.665-16.524z" fill="#c6865c"/><path d="m363.378 81.886 69.195 107.193 40.497 5.283-72.606-112.476c-19.879-30.796-55.98-43.715-88.945-36.245 20.488 4.618 39.374 16.904 51.859 36.245z" fill="#b16e3d"/><circle cx="432.539" cy="426.489" fill="#434343" r="41.94"/><circle cx="432.539" cy="426.489" fill="#d8eafb" r="15.049"/><path d="m161.262 157.498 329.504 39.522-92.139 172.177-205.355-63.097z" fill="#fcb143"/><path d="m448.867 191.995-88.531 165.437 38.291 11.765 92.139-172.177z" fill="#fa9801"/><path d="m495.342 209.773-345.595-41.452c-8.162-.979-13.984-8.389-13.005-16.551.979-8.162 8.389-13.984 16.55-13.005l345.595 41.452c8.162.979 13.984 8.389 13.005 16.551-.978 8.161-8.388 13.984-16.55 13.005z" fill="#fba615"/><path d="m432.613 411.446-27.337-46.185c-.988-1.67-2.568-2.906-4.426-3.464-10.821-3.25-243.923-73.273-255.81-76.844-6.658-2-11.829-7.436-13.496-14.186l-29.616-119.98c-2.353-9.532-10.482-16.721-20.229-17.889l-22.018-2.641c-4.229-.506-8.083 2.514-8.592 6.751-.508 4.237 2.515 8.084 6.751 8.592l22.019 2.641c3.405.408 6.244 2.92 7.067 6.249l29.616 119.98c2.969 12.03 12.186 21.717 24.052 25.282l45.513 13.672 5.309 66.483c.554 6.938 4.95 12.757 11.472 15.185 6.576 2.448 13.693.862 18.591-3.965l52.42-51.33 119.617 35.932 25.802 43.59c2.593-4.78 7.66-7.907 13.295-7.873zm-221.964-31.342c-1.368 1.347-3.675.509-3.83-1.427l-4.83-60.481 55.007 16.524z" fill="#c1e2ff"/><path d="m70.807 126.351-65.051-7.802c-1.666-.2-3.178.989-3.378 2.654l-2.356 19.643c-.2 1.666.989 3.178 2.654 3.378l65.051 7.802c1.666.2 3.178-.989 3.378-2.654l2.356-19.643c.201-1.666-.988-3.178-2.654-3.378z" fill="#fa2a3b"/></svg>