<?xml version="1.0" encoding="iso-8859-1"?>
<!-- Generator: Adobe Illustrator 19.0.0, SVG Export Plug-In . SVG Version: 6.00 Build 0)  -->
<svg version="1.1" id="Capa_1" xmlns="http://www.w3.org/2000/svg" xmlns:xlink="http://www.w3.org/1999/xlink" x="0px" y="0px"
	 viewBox="0 0 512 512" style="enable-background:new 0 0 512 512;" xml:space="preserve">
<g>
	
		<linearGradient id="SVGID_1_" gradientUnits="userSpaceOnUse" x1="-38.4102" y1="630.7773" x2="-30.996" y2="638.1915" gradientTransform="matrix(21.3333 0 0 -21.3333 996.3334 13791.667)">
		<stop  offset="0" style="stop-color:#34CDFA"/>
		<stop  offset="1" style="stop-color:#E8D9F1"/>
	</linearGradient>
	<path style="fill:url(#SVGID_1_);" d="M170.667,192h170.667c11.782,0,21.333,9.551,21.333,21.333v85.333
		c0,11.782-9.551,21.333-21.333,21.333H170.667c-11.782,0-21.333-9.551-21.333-21.333v-85.333
		C149.333,201.551,158.885,192,170.667,192z"/>
	<path style="fill:#CCF2FE;" d="M298.667,21.333h170.667c11.782,0,21.333,9.551,21.333,21.333V128
		c0,11.782-9.551,21.333-21.333,21.333H298.667c-11.782,0-21.333-9.551-21.333-21.333V42.667
		C277.333,30.885,286.885,21.333,298.667,21.333z"/>
	<path style="fill:#B3ECFD;" d="M298.667,106.667V21.333c-11.782,0-21.333,9.551-21.333,21.333V128
		c0,11.782,9.551,21.333,21.333,21.333h170.667c11.782,0,21.333-9.551,21.333-21.333H320
		C308.218,128,298.667,118.449,298.667,106.667z"/>
	
		<linearGradient id="SVGID_2_" gradientUnits="userSpaceOnUse" x1="-44.4102" y1="638.7773" x2="-36.996" y2="646.1915" gradientTransform="matrix(21.3333 0 0 -21.3333 996.3334 13791.667)">
		<stop  offset="0" style="stop-color:#34CDFA"/>
		<stop  offset="1" style="stop-color:#E8D9F1"/>
	</linearGradient>
	<path style="fill:url(#SVGID_2_);" d="M42.667,21.333h170.667c11.782,0,21.333,9.551,21.333,21.333V128
		c0,11.782-9.551,21.333-21.333,21.333H42.667c-11.782,0-21.333-9.551-21.333-21.333V42.667
		C21.333,30.885,30.885,21.333,42.667,21.333z"/>
	
		<linearGradient id="SVGID_3_" gradientUnits="userSpaceOnUse" x1="-32.4102" y1="622.7773" x2="-24.996" y2="630.1915" gradientTransform="matrix(21.3333 0 0 -21.3333 996.3334 13791.667)">
		<stop  offset="0" style="stop-color:#34CDFA"/>
		<stop  offset="1" style="stop-color:#E8D9F1"/>
	</linearGradient>
	<path style="fill:url(#SVGID_3_);" d="M298.667,362.667h170.667c11.782,0,21.333,9.551,21.333,21.333v85.333
		c0,11.782-9.551,21.333-21.333,21.333H298.667c-11.782,0-21.333-9.551-21.333-21.333V384
		C277.333,372.218,286.885,362.667,298.667,362.667z"/>
	<path style="fill:#CCF2FE;" d="M42.667,362.667h170.667c11.782,0,21.333,9.551,21.333,21.333v85.333
		c0,11.782-9.551,21.333-21.333,21.333H42.667c-11.782,0-21.333-9.551-21.333-21.333V384
		C21.333,372.218,30.885,362.667,42.667,362.667z"/>
	<path style="fill:#B3ECFD;" d="M42.667,448v-85.333c-11.782,0-21.333,9.551-21.333,21.333v85.333
		c0,11.782,9.551,21.333,21.333,21.333h170.667c11.782,0,21.333-9.551,21.333-21.333H64C52.218,469.333,42.667,459.782,42.667,448z"
		/>
	<path style="fill:#CCF2FE;" d="M426.667,192c-11.782,0-21.333,9.551-21.333,21.333v85.333c0,11.782,9.551,21.333,21.333,21.333H512
		V192H426.667z"/>
	<path style="fill:#B3ECFD;" d="M448,298.667c-11.782,0-21.333-9.551-21.333-21.333V192c-11.782,0-21.333,9.551-21.333,21.333
		v85.333c0,11.782,9.551,21.333,21.333,21.333H512v-21.333H448z"/>
	<path style="fill:#CCF2FE;" d="M85.333,192H0v128h85.333c11.782,0,21.333-9.551,21.333-21.333v-85.333
		C106.667,201.551,97.115,192,85.333,192z"/>
	<path style="fill:#B3ECFD;" d="M85.333,298.667H0V320h85.333c11.782,0,21.333-9.551,21.333-21.333v-21.333
		C106.667,289.115,97.115,298.667,85.333,298.667z"/>
</g>
<g>
</g>
<g>
</g>
<g>
</g>
<g>
</g>
<g>
</g>
<g>
</g>
<g>
</g>
<g>
</g>
<g>
</g>
<g>
</g>
<g>
</g>
<g>
</g>
<g>
</g>
<g>
</g>
<g>
</g>
</svg>
