<?xml version="1.0" encoding="utf-8"?>
<!-- Generator: Adobe Illustrator 16.0.0, SVG Export Plug-In . SVG Version: 6.00 Build 0)  -->
<!DOCTYPE svg PUBLIC "-//W3C//DTD SVG 1.1//EN" "http://www.w3.org/Graphics/SVG/1.1/DTD/svg11.dtd">
<svg version="1.1" id="Layer_1" xmlns="http://www.w3.org/2000/svg" xmlns:xlink="http://www.w3.org/1999/xlink" x="0px" y="0px"
	 width="130.5px" height="48.75px" viewBox="0 0 130.5 48.75" enable-background="new 0 0 130.5 48.75" xml:space="preserve">
<g>
	<path fill="#FF6C00" d="M2.538,10.236h9.984c2.335,0,4.195,0.567,5.582,1.702c1.386,1.135,2.079,2.575,2.079,4.32
		c0,2.598-1.517,4.354-4.55,5.271c1.549,0.219,2.783,0.862,3.699,1.932s1.375,2.324,1.375,3.765c0,1.833-0.671,3.29-2.013,4.37
		c-1.342,1.08-3.214,1.62-5.614,1.62H2.538V10.236z M8.135,14.491v4.976h3.667c0.807,0,1.457-0.207,1.948-0.621
		c0.491-0.415,0.736-1.031,0.736-1.85s-0.246-1.44-0.736-1.866c-0.491-0.426-1.141-0.639-1.948-0.639H8.135z M8.135,28.96h4.223
		c0.764,0,1.396-0.229,1.899-0.688c0.501-0.458,0.753-1.091,0.753-1.898c0-0.807-0.241-1.451-0.72-1.931
		c-0.48-0.48-1.103-0.721-1.866-0.721H8.135V28.96z"/>
	<path d="M28.562,14.95v3.404c1.31-2.4,3.055-3.602,5.238-3.602v5.696h-1.375c-1.288,0-2.253,0.306-2.897,0.917
		c-0.644,0.611-0.966,1.681-0.966,3.208v8.642h-5.598V14.95H28.562z"/>
	<path d="M40.313,12.888c-0.633,0.633-1.407,0.949-2.324,0.949c-0.917,0-1.692-0.316-2.324-0.949
		c-0.633-0.633-0.95-1.413-0.95-2.341c0-0.927,0.316-1.707,0.95-2.341c0.632-0.632,1.407-0.949,2.324-0.949
		c0.917,0,1.691,0.317,2.324,0.949c0.633,0.634,0.95,1.414,0.95,2.341C41.263,11.475,40.946,12.255,40.313,12.888z M35.207,33.216
		V14.95h5.598v18.266H35.207z"/>
	<path d="M45.158,30.826c-1.615-1.746-2.422-3.982-2.422-6.711c0-2.728,0.807-4.97,2.422-6.727c1.615-1.757,3.584-2.636,5.909-2.636
		s4.108,0.863,5.352,2.587v-2.39h5.598v18.167c0,2.554-0.698,4.682-2.095,6.384c-0.699,0.872-1.653,1.549-2.864,2.029
		c-1.211,0.479-2.614,0.721-4.207,0.721c-2.794,0-5.008-0.568-6.645-1.702c-1.637-1.136-2.565-2.87-2.783-5.205h5.5
		c0.524,1.375,1.833,2.062,3.928,2.062c1.025,0,1.876-0.344,2.553-1.031c0.676-0.688,1.015-1.773,1.015-3.258v-2.553
		c-1.353,1.921-3.165,2.881-5.434,2.881C48.715,33.445,46.772,32.572,45.158,30.826z M55.208,27.422
		c0.807-0.786,1.211-1.898,1.211-3.339s-0.404-2.548-1.211-3.323c-0.808-0.773-1.735-1.161-2.783-1.161
		c-1.047,0-1.975,0.393-2.782,1.178c-0.808,0.786-1.211,1.898-1.211,3.339s0.404,2.549,1.211,3.323
		c0.807,0.774,1.735,1.162,2.782,1.162C53.473,28.601,54.4,28.207,55.208,27.422z"/>
	<path d="M66.369,30.826c-1.615-1.746-2.422-3.982-2.422-6.711c0-2.728,0.807-4.97,2.422-6.727c1.615-1.757,3.586-2.636,5.91-2.636
		s4.107,0.863,5.352,2.587v-2.39h5.598v18.266h-5.598v-2.651c-1.354,1.921-3.164,2.881-5.434,2.881
		C69.926,33.445,67.984,32.572,66.369,30.826z M76.42,27.422c0.807-0.786,1.211-1.898,1.211-3.339s-0.404-2.548-1.211-3.323
		c-0.809-0.773-1.736-1.161-2.783-1.161s-1.975,0.393-2.783,1.178c-0.807,0.786-1.211,1.898-1.211,3.339s0.404,2.549,1.211,3.323
		c0.809,0.774,1.736,1.162,2.783,1.162S75.611,28.207,76.42,27.422z"/>
	<path d="M94.26,28.47h1.997v4.746h-2.848c-2.052,0-3.64-0.453-4.763-1.358c-1.125-0.905-1.687-2.46-1.687-4.665v-7.594h-1.702
		V14.95h1.702v-4.452h5.598v4.452h3.667v4.648h-3.667v7.594C92.558,28.044,93.125,28.47,94.26,28.47z"/>
	<path d="M106.208,33.445c-2.662,0-4.845-0.856-6.547-2.57c-1.702-1.713-2.553-3.987-2.553-6.825c0-2.836,0.845-5.095,2.537-6.775
		c1.69-1.681,3.879-2.521,6.562-2.521c2.685,0,4.91,0.83,6.679,2.488c1.768,1.659,2.651,3.961,2.651,6.907
		c0,0.633-0.044,1.223-0.131,1.768h-12.57c0.108,0.808,0.469,1.468,1.08,1.98c0.61,0.513,1.271,0.77,1.98,0.77
		c0.709,0,1.238-0.071,1.588-0.213c0.349-0.142,0.605-0.283,0.769-0.426c0.164-0.142,0.377-0.376,0.639-0.704h6.056
		c-0.523,1.833-1.571,3.312-3.143,4.436C110.234,32.884,108.369,33.445,106.208,33.445z M108.598,20.335
		c-0.654-0.535-1.43-0.803-2.324-0.803s-1.647,0.268-2.259,0.803c-0.61,0.535-0.993,1.228-1.146,2.078h6.842
		C109.623,21.562,109.253,20.87,108.598,20.335z"/>
</g>
</svg>
