<svg id="Layer_1" height="512" viewBox="0 0 512 512" width="512" xmlns="http://www.w3.org/2000/svg" data-name="Layer 1"><path d="m463.67 340.92v.23l-13.89 13.84 10.72 16.44-16.45 10.63 7.09 18.33-18.28 6.96 3.14 19.41-19.33 2.99-.93 19.64-19.53-1.12-4.97 19.01-18.87-5.17-8.8 17.56-17.38-9.01-12.24 15.34-15.14-12.44-15.14 12.44-12.24-15.34-17.38 9.01-8.8-17.56-18.87 5.17-4.97-19.01-19.53 1.12-.93-19.64-19.33-2.99 3.15-19.41-18.29-6.96 7.09-18.33-16.45-10.63 10.73-16.44-13.89-13.84v-.23h37.9a106.95 106.95 0 1 1 213.9 0z" fill="#ccd3df"/><path d="m318.81 319.6a21.545 21.545 0 1 1 -21.55 21.55 21.546 21.546 0 0 1 21.55-21.55z" fill="#6d7486"/><path d="m463.67 340.92h-24.863v.253a120 120 0 0 1 -240 0c0-.085 0-.169 0-.253h-24.847v.23l13.89 13.84-10.73 16.44 16.45 10.63-7.09 18.33 18.29 6.96-3.15 19.41 19.33 2.99.93 19.64 19.53-1.12 4.97 19.01 18.87-5.17 8.8 17.56 17.38-9.01 12.24 15.34 15.14-12.44 15.14 12.44 12.24-15.34 17.38 9.01 8.8-17.56 18.87 5.17 4.97-19.01 19.53 1.12.93-19.64 19.33-2.99-3.14-19.41 18.28-6.96-7.09-18.33 16.45-10.63-10.72-16.44 13.89-13.84z" fill="#e2e4ed"/><path d="m169.46 96.01a39.794 39.794 0 0 1 26.12 53.55l-2.96 7.15-45.91-13.36a27.637 27.637 0 0 0 -32.52 14.34l-23.72 48.26a27.628 27.628 0 0 0 14.52 37.84l38.31 15.35 27.92 11.2a162.548 162.548 0 0 0 -15.52 58.54h-21.63a15.716 15.716 0 0 1 -15.53-13.87c-1.04-8.22-3.1-21.09-11.92-30.07-12.79-13.02-64.31-22.17-72.43-40.37-5.32-11.94-6.79-24.74 0-49.86 9.35-34.59 19.09-53.04 36.45-69.37a89.434 89.434 0 0 1 30.25-18.59 15.763 15.763 0 0 0 10.14-15.96c-.01-.08-.01-.16-.02-.24-.46-6.11-4.7-10.77-10.14-13.59z" fill="#fb6771"/><path d="m482.37 340.92h-56.61a106.95 106.95 0 1 0 -213.9 0h-56.6q0-6.075.44-12.04a162.548 162.548 0 0 1 15.52-58.54h.01a163.689 163.689 0 0 1 220.63-75.8v.01a163.532 163.532 0 0 1 90.51 146.37z" fill="#50dd5a"/><path d="m342.07 88.82c.55.14 52.89 14.19 51.89 57.21-.44 18.85-2.06 47.86-2.1 48.51a163.689 163.689 0 0 0 -220.63 75.8h-.01l-27.92-11.2 49.32-102.43 2.96-7.15a39.794 39.794 0 0 0 -26.12-53.55l-68.59-19.05c-29.39-15.23-24.25-50.96-24.25-50.96s182.12 41.88 265.45 62.82z" fill="#5fa8ed"/><path d="m59.19 220.71c9.35-34.59 19.09-53.04 36.45-69.37a89.434 89.434 0 0 1 30.25-18.59 15.763 15.763 0 0 0 10.14-15.96c-.01-.08-.01-.16-.02-.24-.46-6.11-4.7-10.77-10.14-13.59l68.59 19.05c.822.228 1.625.487 2.419.761a39.712 39.712 0 0 0 -27.419-26.761l-68.59-19.05c5.44 2.82 9.68 7.48 10.14 13.59.01.08.01.16.02.24a15.763 15.763 0 0 1 -10.14 15.96 89.434 89.434 0 0 0 -30.25 18.59c-17.36 16.33-27.1 34.78-36.45 69.37-6.79 25.12-5.32 37.92 0 49.86 2.923 6.552 11.47 11.93 21.81 16.739-2.35-9.821-1.908-21.737 3.19-40.599z" fill="#e75163"/><path d="m196.22 296.34h.01a163.689 163.689 0 0 1 220.63-75.8v.01a163.731 163.731 0 0 1 31.64 20.721 164.18 164.18 0 0 0 -56.64-46.721v-.01a163.689 163.689 0 0 0 -220.63 75.8h-.01a162.548 162.548 0 0 0 -15.52 58.54q-.435 5.955-.44 12.04h27.066a162.378 162.378 0 0 1 13.894-44.58z" fill="#49c160"/><path d="m101.62 52s182.12 41.88 265.45 62.82a95.849 95.849 0 0 1 22.508 9.944c-12.446-26.539-47.061-35.83-47.508-35.944-83.33-20.94-265.45-62.82-265.45-62.82s-5.14 35.73 24.25 50.96l3.6 1a61.313 61.313 0 0 1 -2.85-25.96z" fill="#4689d3"/><g fill="#284268"><path d="m398.054 191.058c.46-8.626 1.551-30.006 1.9-44.891.462-19.738-9.21-36.949-27.97-49.773a102 102 0 0 0 -28.453-13.388c-82.431-20.716-263.748-62.435-265.57-62.854a6 6 0 0 0 -7.283 4.994c-.236 1.63-5.37 40.14 27.431 57.141 2.435 1.262 6.571 4.071 6.919 8.708l.019.244a9.812 9.812 0 0 1 -6.265 9.895 95.929 95.929 0 0 0 -32.258 19.836c-18.2 17.123-28.531 36.683-38.123 72.172-7.427 27.477-5.247 41.41.313 53.876 5.686 12.76 25.666 20.565 44.986 28.114 11.868 4.638 24.141 9.432 28.642 14.016 7.888 8.032 9.481 20.586 10.248 26.622a21.791 21.791 0 0 0 21.481 19.105h15.306c-.07 2.007-.119 4.019-.119 6.042a6 6 0 0 0 6 6h15.993l8.907 8.877-8.058 12.355a6 6 0 0 0 1.767 8.318l12.349 7.983-5.328 13.773a6 6 0 0 0 3.458 7.777l13.716 5.223-2.362 14.577a6 6 0 0 0 5.006 6.89l14.485 2.239.7 14.745a6 6 0 0 0 6.336 5.7l14.619-.837 3.732 14.263a6 6 0 0 0 7.392 4.267l14.12-3.873 6.594 13.159a6 6 0 0 0 8.124 2.64l13.007-6.738 9.163 11.484a6 6 0 0 0 8.5.894l11.333-9.313 11.332 9.313a6 6 0 0 0 8.5-.894l9.163-11.484 13.008 6.745a6 6 0 0 0 8.124-2.64l6.594-13.159 14.12 3.873a6 6 0 0 0 7.392-4.267l3.732-14.263 14.62.837a6 6 0 0 0 6.335-5.7l.7-14.745 14.484-2.239a6 6 0 0 0 5.006-6.89l-2.363-14.58 13.719-5.227a6 6 0 0 0 3.461-7.772l-5.328-13.778 12.349-7.983a6 6 0 0 0 1.767-8.318l-8.059-12.355 8.908-8.877h15.992a6 6 0 0 0 6-6 169.708 169.708 0 0 0 -90.313-149.859zm-294.915-119.695c-17.854-9.563-20.732-28.019-20.895-37.909 34.2 7.888 185.259 42.818 258.32 61.18a90.143 90.143 0 0 1 24.978 11.893c15.239 10.535 22.78 23.778 22.416 39.359-.291 12.371-1.1 29.327-1.624 39.517a169.467 169.467 0 0 0 -217.945 77.338l-16.9-6.78 46.531-96.647c.05-.1.087-.208.13-.312h.008l2.96-7.153a45.787 45.787 0 0 0 -30.057-61.628zm37.188 180.121-33.105-13.265a21.632 21.632 0 0 1 -11.368-29.619l23.724-48.26a21.595 21.595 0 0 1 25.458-11.227l39.1 11.382zm9.89 71.391h-16.148a9.766 9.766 0 0 1 -9.577-8.618c-1.419-11.176-4.143-23.9-13.59-33.517-6.3-6.417-18.6-11.221-32.837-16.785-15.462-6.042-34.708-13.561-38.392-21.824-4.645-10.416-6.213-21.72.312-45.859 9.061-33.521 18.158-50.939 34.762-66.562a83.986 83.986 0 0 1 28.253-17.342 21.875 21.875 0 0 0 14.012-22.022l-.012-.246a19.833 19.833 0 0 0 -.363-2.538l51.22 14.223a33.786 33.786 0 0 1 22.179 45.477l-.9 2.184-40.746-11.857a33.579 33.579 0 0 0 -39.581 17.455l-23.724 48.256a33.63 33.63 0 0 0 17.674 46.053l38.3 15.35 22.144 8.885a168.175 168.175 0 0 0 -12.986 49.287zm290.583 54.148a6 6 0 0 0 -2.338 7.2l4.913 12.7-12.649 4.816a6 6 0 0 0 -3.788 6.568l2.178 13.441-13.354 2.064a6 6 0 0 0 -5.076 5.645l-.648 13.589-13.475-.772a6 6 0 0 0 -6.148 4.472l-3.438 13.142-13.012-3.569a6 6 0 0 0 -6.951 3.1l-6.074 12.122-11.985-6.208a6 6 0 0 0 -7.45 1.585l-8.445 10.582-10.439-8.579a6 6 0 0 0 -7.619 0l-10.439 8.579-8.44-10.579a6 6 0 0 0 -7.45-1.585l-11.985 6.208-6.074-12.122a6 6 0 0 0 -6.951-3.1l-13.012 3.569-3.438-13.142a5.982 5.982 0 0 0 -6.148-4.472l-13.475.772-.648-13.589a6 6 0 0 0 -5.076-5.645l-13.355-2.064 2.179-13.441a6 6 0 0 0 -3.788-6.568l-12.649-4.816 4.913-12.7a6 6 0 0 0 -2.338-7.2l-11.39-7.363 7.434-11.4a6 6 0 0 0 -.79-7.529l-3.833-3.819h23.615a6 6 0 0 0 6-6 100.948 100.948 0 0 1 201.9 0 6 6 0 0 0 6 6h23.615l-3.833 3.819a6 6 0 0 0 -.79 7.529l7.434 11.4zm-9.2-42.106a112.95 112.95 0 0 0 -225.581 0h-44.651c3.166-84.1 72.576-151.555 157.444-151.555s154.277 67.45 157.443 151.555z"/><path d="m318.812 313.6a27.548 27.548 0 1 0 27.548 27.549 27.58 27.58 0 0 0 -27.548-27.549zm0 43.1a15.548 15.548 0 1 1 15.548-15.547 15.565 15.565 0 0 1 -15.548 15.54z"/><path d="m291.98 150.269a6 6 0 0 0 11.6-3.065l-9.5-35.956a6 6 0 0 0 -11.6 3.064z"/><path d="m314.59 150.445a6 6 0 1 0 11.5-3.418l-10.686-35.956a6 6 0 0 0 -11.5 3.418z"/><path d="m337.149 150.445a6 6 0 1 0 11.5-3.418l-10.686-35.956a6 6 0 0 0 -11.5 3.418z"/></g></svg>